<svg width="1697" height="256" viewBox="0 0 1697 256" fill="none" xmlns="http://www.w3.org/2000/svg">
<g clip-path="url(#clip0_1_2)">
<path d="M1236.33 -58H400.672C197.06 -58 32 -19.1747 32 28.7188V225.281C32 273.175 197.06 312 400.672 312H1236.33C1439.94 312 1605 273.175 1605 225.281V28.7188C1605 -19.1747 1439.94 -58 1236.33 -58Z" fill="black" fill-opacity="0.4"/>
<path d="M470.496 180.375V92.6016H485.555L486.141 98.8125C487 97.7578 487.938 96.8203 488.953 96C489.969 95.1406 491.062 94.3984 492.234 93.7734C493.641 93.0312 495.184 92.4648 496.863 92.0742C498.582 91.6445 500.418 91.4297 502.371 91.4297C506.395 91.4297 509.949 92.2109 513.035 93.7734C516.121 95.2969 518.719 97.4648 520.828 100.277C522.938 103.129 524.52 106.547 525.574 110.531C526.668 114.477 527.215 118.852 527.215 123.656V124.887C527.215 129.496 526.668 133.773 525.574 137.719C524.52 141.664 522.957 145.062 520.887 147.914C518.777 150.805 516.18 153.07 513.094 154.711C510.008 156.352 506.473 157.172 502.488 157.172C500.379 157.172 498.426 156.938 496.629 156.469C494.871 156.039 493.23 155.395 491.707 154.535C490.809 153.988 489.949 153.383 489.129 152.719C488.309 152.055 487.527 151.312 486.785 150.492V180.375H470.496ZM510.926 123.656C510.926 121 510.672 118.52 510.164 116.215C509.695 113.871 508.953 111.84 507.938 110.121C506.883 108.441 505.535 107.113 503.895 106.137C502.293 105.16 500.34 104.672 498.035 104.672C496.707 104.672 495.496 104.809 494.402 105.082C493.309 105.316 492.312 105.668 491.414 106.137C490.398 106.684 489.5 107.367 488.719 108.188C487.977 109.008 487.332 109.965 486.785 111.059V137.543C487.293 138.559 487.898 139.477 488.602 140.297C489.344 141.117 490.184 141.82 491.121 142.406C492.02 142.953 493.055 143.383 494.227 143.695C495.398 143.969 496.707 144.105 498.152 144.105C500.457 144.105 502.41 143.598 504.012 142.582C505.652 141.566 506.98 140.18 507.996 138.422C509.012 136.664 509.754 134.633 510.223 132.328C510.691 129.984 510.926 127.504 510.926 124.887V123.656ZM558.621 101.332C559.441 100.121 560.34 99.0078 561.316 97.9922C562.332 96.9375 563.387 96.0195 564.48 95.2383C566.16 94.0273 568.016 93.0898 570.047 92.4258C572.078 91.7617 574.227 91.4297 576.492 91.4297C579.812 91.4297 582.859 91.9375 585.633 92.9531C588.406 93.9297 590.789 95.4727 592.781 97.582C594.773 99.6914 596.316 102.406 597.41 105.727C598.543 109.008 599.109 112.973 599.109 117.621V156H582.82V117.504C582.82 115.238 582.527 113.285 581.941 111.645C581.395 110.004 580.594 108.676 579.539 107.66C578.484 106.645 577.215 105.902 575.73 105.434C574.246 104.926 572.566 104.672 570.691 104.672C569.246 104.672 567.898 104.809 566.648 105.082C565.398 105.355 564.266 105.766 563.25 106.312C562.312 106.781 561.453 107.348 560.672 108.012C559.93 108.676 559.246 109.418 558.621 110.238V156H542.332V66H558.621V101.332ZM614.637 180.375V92.6016H629.695L630.281 98.8125C631.141 97.7578 632.078 96.8203 633.094 96C634.109 95.1406 635.203 94.3984 636.375 93.7734C637.781 93.0312 639.324 92.4648 641.004 92.0742C642.723 91.6445 644.559 91.4297 646.512 91.4297C650.535 91.4297 654.09 92.2109 657.176 93.7734C660.262 95.2969 662.859 97.4648 664.969 100.277C667.078 103.129 668.66 106.547 669.715 110.531C670.809 114.477 671.355 118.852 671.355 123.656V124.887C671.355 129.496 670.809 133.773 669.715 137.719C668.66 141.664 667.098 145.062 665.027 147.914C662.918 150.805 660.32 153.07 657.234 154.711C654.148 156.352 650.613 157.172 646.629 157.172C644.52 157.172 642.566 156.938 640.77 156.469C639.012 156.039 637.371 155.395 635.848 154.535C634.949 153.988 634.09 153.383 633.27 152.719C632.449 152.055 631.668 151.312 630.926 150.492V180.375H614.637ZM655.066 123.656C655.066 121 654.812 118.52 654.305 116.215C653.836 113.871 653.094 111.84 652.078 110.121C651.023 108.441 649.676 107.113 648.035 106.137C646.434 105.16 644.48 104.672 642.176 104.672C640.848 104.672 639.637 104.809 638.543 105.082C637.449 105.316 636.453 105.668 635.555 106.137C634.539 106.684 633.641 107.367 632.859 108.188C632.117 109.008 631.473 109.965 630.926 111.059V137.543C631.434 138.559 632.039 139.477 632.742 140.297C633.484 141.117 634.324 141.82 635.262 142.406C636.16 142.953 637.195 143.383 638.367 143.695C639.539 143.969 640.848 144.105 642.293 144.105C644.598 144.105 646.551 143.598 648.152 142.582C649.793 141.566 651.121 140.18 652.137 138.422C653.152 136.664 653.895 134.633 654.363 132.328C654.832 129.984 655.066 127.504 655.066 124.887V123.656ZM684.773 123.832C684.773 119.027 685.32 114.633 686.414 110.648C687.547 106.664 689.188 103.246 691.336 100.395C693.484 97.543 696.082 95.3359 699.129 93.7734C702.215 92.2109 705.73 91.4297 709.676 91.4297C712.996 91.4297 715.906 92.0352 718.406 93.2461C720.945 94.418 723.191 96.0977 725.145 98.2852V66H741.492V156H726.785L725.965 149.379C723.973 151.84 721.629 153.754 718.934 155.121C716.238 156.488 713.113 157.172 709.559 157.172C705.691 157.172 702.215 156.371 699.129 154.77C696.082 153.129 693.504 150.883 691.395 148.031C689.246 145.18 687.605 141.801 686.473 137.895C685.34 133.949 684.773 129.672 684.773 125.062V123.832ZM701.062 125.062C701.062 127.719 701.277 130.199 701.707 132.504C702.176 134.77 702.918 136.742 703.934 138.422C704.949 140.141 706.258 141.488 707.859 142.465C709.461 143.441 711.414 143.93 713.719 143.93C716.531 143.93 718.855 143.324 720.691 142.113C722.566 140.902 724.051 139.242 725.145 137.133V111.469C724.051 109.32 722.586 107.66 720.75 106.488C718.914 105.277 716.609 104.672 713.836 104.672C711.531 104.672 709.559 105.18 707.918 106.195C706.316 107.172 705.008 108.52 703.992 110.238C702.977 111.996 702.234 114.047 701.766 116.391C701.297 118.695 701.062 121.176 701.062 123.832V125.062ZM799.91 156L798.973 147.094C796.824 150.258 794.227 152.738 791.18 154.535C788.172 156.332 784.871 157.23 781.277 157.23C777.996 157.23 774.988 156.723 772.254 155.707C769.52 154.691 767.176 153.07 765.223 150.844C763.27 148.656 761.746 145.863 760.652 142.465C759.598 139.027 759.07 134.906 759.07 130.102V92.6016H775.359V130.219C775.359 132.797 775.535 134.965 775.887 136.723C776.277 138.48 776.883 139.887 777.703 140.941C778.523 142.035 779.598 142.816 780.926 143.285C782.254 143.754 783.875 143.988 785.789 143.988C787.508 143.988 789.051 143.812 790.418 143.461C791.824 143.109 793.055 142.602 794.109 141.938C795.008 141.352 795.809 140.648 796.512 139.828C797.215 139.008 797.82 138.09 798.328 137.074V92.6016H814.676V156H799.91ZM840.75 92.6016L841.219 100.277C842.43 97.543 844.09 95.3945 846.199 93.832C848.348 92.2305 850.945 91.4297 853.992 91.4297C855.477 91.4297 856.805 91.6055 857.977 91.957C859.148 92.3086 860.164 92.8555 861.023 93.5977C861.688 94.1445 862.254 94.8086 862.723 95.5898C863.23 96.332 863.66 97.1914 864.012 98.168C864.559 97.2305 865.164 96.3906 865.828 95.6484C866.531 94.8672 867.293 94.2031 868.113 93.6562C869.129 92.9531 870.281 92.4062 871.57 92.0156C872.859 91.625 874.266 91.4297 875.789 91.4297C877.703 91.4297 879.48 91.7812 881.121 92.4844C882.801 93.1875 884.266 94.3008 885.516 95.8242C886.727 97.3867 887.664 99.3984 888.328 101.859C889.031 104.281 889.383 107.25 889.383 110.766V156H874.559V110.707C874.559 109.496 874.422 108.5 874.148 107.719C873.914 106.938 873.582 106.312 873.152 105.844C872.723 105.414 872.215 105.121 871.629 104.965C871.082 104.77 870.516 104.672 869.93 104.672C869.305 104.672 868.738 104.75 868.23 104.906C867.762 105.062 867.312 105.277 866.883 105.551C866.531 105.824 866.219 106.137 865.945 106.488C865.672 106.801 865.438 107.172 865.242 107.602C865.242 107.68 865.242 107.855 865.242 108.129C865.242 108.402 865.242 108.773 865.242 109.242V156H850.887V110.648C850.887 109.438 850.77 108.441 850.535 107.66C850.301 106.879 849.988 106.273 849.598 105.844C849.168 105.414 848.68 105.121 848.133 104.965C847.586 104.77 847 104.672 846.375 104.672C845.672 104.672 845.047 104.789 844.5 105.023C843.953 105.258 843.465 105.59 843.035 106.02C842.723 106.332 842.449 106.703 842.215 107.133C841.98 107.562 841.766 108.031 841.57 108.539V156H826.746V92.6016H840.75ZM902.918 180.375V92.6016H917.977L918.562 98.8125C919.422 97.7578 920.359 96.8203 921.375 96C922.391 95.1406 923.484 94.3984 924.656 93.7734C926.062 93.0312 927.605 92.4648 929.285 92.0742C931.004 91.6445 932.84 91.4297 934.793 91.4297C938.816 91.4297 942.371 92.2109 945.457 93.7734C948.543 95.2969 951.141 97.4648 953.25 100.277C955.359 103.129 956.941 106.547 957.996 110.531C959.09 114.477 959.637 118.852 959.637 123.656V124.887C959.637 129.496 959.09 133.773 957.996 137.719C956.941 141.664 955.379 145.062 953.309 147.914C951.199 150.805 948.602 153.07 945.516 154.711C942.43 156.352 938.895 157.172 934.91 157.172C932.801 157.172 930.848 156.938 929.051 156.469C927.293 156.039 925.652 155.395 924.129 154.535C923.23 153.988 922.371 153.383 921.551 152.719C920.73 152.055 919.949 151.312 919.207 150.492V180.375H902.918ZM943.348 123.656C943.348 121 943.094 118.52 942.586 116.215C942.117 113.871 941.375 111.84 940.359 110.121C939.305 108.441 937.957 107.113 936.316 106.137C934.715 105.16 932.762 104.672 930.457 104.672C929.129 104.672 927.918 104.809 926.824 105.082C925.73 105.316 924.734 105.668 923.836 106.137C922.82 106.684 921.922 107.367 921.141 108.188C920.398 109.008 919.754 109.965 919.207 111.059V137.543C919.715 138.559 920.32 139.477 921.023 140.297C921.766 141.117 922.605 141.82 923.543 142.406C924.441 142.953 925.477 143.383 926.648 143.695C927.82 143.969 929.129 144.105 930.574 144.105C932.879 144.105 934.832 143.598 936.434 142.582C938.074 141.566 939.402 140.18 940.418 138.422C941.434 136.664 942.176 134.633 942.645 132.328C943.113 129.984 943.348 127.504 943.348 124.887V123.656ZM991.219 146.566C991.219 143.559 992.215 141.02 994.207 138.949C996.199 136.84 998.973 135.785 1002.53 135.785C1006.04 135.785 1008.8 136.82 1010.79 138.891C1012.82 140.961 1013.84 143.52 1013.84 146.566C1013.84 149.613 1012.8 152.152 1010.73 154.184C1008.7 156.176 1005.96 157.172 1002.53 157.172C999.051 157.172 996.297 156.156 994.266 154.125C992.234 152.094 991.219 149.574 991.219 146.566ZM1076.71 77.0742V92.6016H1100.38V104.613H1076.71V131.859C1076.71 134.164 1076.96 136.098 1077.47 137.66C1078.02 139.184 1078.78 140.395 1079.75 141.293C1080.73 142.23 1081.9 142.895 1083.27 143.285C1084.68 143.676 1086.24 143.871 1087.96 143.871C1089.21 143.871 1090.48 143.812 1091.77 143.695C1093.09 143.578 1094.36 143.422 1095.57 143.227C1096.75 143.07 1097.84 142.895 1098.86 142.699C1099.91 142.504 1100.81 142.309 1101.55 142.113L1103.13 153.305C1102 153.969 1100.67 154.555 1099.15 155.062C1097.62 155.531 1096 155.922 1094.29 156.234C1092.57 156.547 1090.77 156.781 1088.89 156.938C1087.06 157.133 1085.24 157.23 1083.45 157.23C1079.97 157.23 1076.8 156.781 1073.95 155.883C1071.14 154.945 1068.74 153.5 1066.75 151.547C1064.71 149.633 1063.15 147.191 1062.06 144.223C1060.96 141.215 1060.42 137.621 1060.42 133.441V104.613H1045.95V92.6016H1060.42V77.0742H1076.71ZM1135.36 146.566C1135.36 143.559 1136.36 141.02 1138.35 138.949C1140.34 136.84 1143.11 135.785 1146.67 135.785C1150.18 135.785 1152.94 136.82 1154.93 138.891C1156.96 140.961 1157.98 143.52 1157.98 146.566C1157.98 149.613 1156.94 152.152 1154.87 154.184C1152.84 156.176 1150.11 157.172 1146.67 157.172C1143.19 157.172 1140.44 156.156 1138.41 154.125C1136.38 152.094 1135.36 149.574 1135.36 146.566ZM1201.1 92.6016L1201.57 100.277C1202.78 97.543 1204.44 95.3945 1206.55 93.832C1208.7 92.2305 1211.3 91.4297 1214.34 91.4297C1215.83 91.4297 1217.16 91.6055 1218.33 91.957C1219.5 92.3086 1220.52 92.8555 1221.38 93.5977C1222.04 94.1445 1222.61 94.8086 1223.07 95.5898C1223.58 96.332 1224.01 97.1914 1224.36 98.168C1224.91 97.2305 1225.52 96.3906 1226.18 95.6484C1226.88 94.8672 1227.64 94.2031 1228.46 93.6562C1229.48 92.9531 1230.63 92.4062 1231.92 92.0156C1233.21 91.625 1234.62 91.4297 1236.14 91.4297C1238.05 91.4297 1239.83 91.7812 1241.47 92.4844C1243.15 93.1875 1244.62 94.3008 1245.87 95.8242C1247.08 97.3867 1248.02 99.3984 1248.68 101.859C1249.38 104.281 1249.73 107.25 1249.73 110.766V156H1234.91V110.707C1234.91 109.496 1234.77 108.5 1234.5 107.719C1234.27 106.938 1233.93 106.312 1233.5 105.844C1233.07 105.414 1232.57 105.121 1231.98 104.965C1231.43 104.77 1230.87 104.672 1230.28 104.672C1229.66 104.672 1229.09 104.75 1228.58 104.906C1228.11 105.062 1227.66 105.277 1227.23 105.551C1226.88 105.824 1226.57 106.137 1226.3 106.488C1226.02 106.801 1225.79 107.172 1225.59 107.602C1225.59 107.68 1225.59 107.855 1225.59 108.129C1225.59 108.402 1225.59 108.773 1225.59 109.242V156H1211.24V110.648C1211.24 109.438 1211.12 108.441 1210.89 107.66C1210.65 106.879 1210.34 106.273 1209.95 105.844C1209.52 105.414 1209.03 105.121 1208.48 104.965C1207.94 104.77 1207.35 104.672 1206.73 104.672C1206.02 104.672 1205.4 104.789 1204.85 105.023C1204.3 105.258 1203.82 105.59 1203.39 106.02C1203.07 106.332 1202.8 106.703 1202.57 107.133C1202.33 107.562 1202.12 108.031 1201.92 108.539V156H1187.1V92.6016H1201.1ZM1293.8 157.172C1288.91 157.172 1284.48 156.371 1280.5 154.77C1276.51 153.168 1273.09 150.98 1270.24 148.207C1267.39 145.473 1265.18 142.25 1263.62 138.539C1262.1 134.789 1261.34 130.785 1261.34 126.527V124.184C1261.34 119.34 1262.1 114.926 1263.62 110.941C1265.14 106.918 1267.27 103.461 1270.01 100.57C1272.74 97.6797 1275.98 95.4336 1279.73 93.832C1283.48 92.2305 1287.57 91.4297 1291.98 91.4297C1296.55 91.4297 1300.61 92.1914 1304.17 93.7148C1307.76 95.1992 1310.81 97.3086 1313.31 100.043C1315.77 102.777 1317.64 106.078 1318.93 109.945C1320.22 113.773 1320.87 118.012 1320.87 122.66V129.574H1277.86V129.75C1278.41 132.289 1279.11 134.34 1279.97 135.902C1280.83 137.426 1281.98 138.812 1283.43 140.062C1284.91 141.352 1286.61 142.348 1288.52 143.051C1290.44 143.754 1292.53 144.105 1294.79 144.105C1298 144.105 1301.1 143.5 1304.11 142.289C1307.12 141.078 1309.56 139.262 1311.43 136.84L1319.58 145.629C1317.51 148.559 1314.23 151.215 1309.73 153.598C1305.24 155.98 1299.93 157.172 1293.8 157.172ZM1291.86 104.613C1290.03 104.613 1288.35 104.945 1286.82 105.609C1285.3 106.234 1283.97 107.152 1282.84 108.363C1281.67 109.574 1280.69 111.02 1279.91 112.699C1279.13 114.379 1278.54 116.254 1278.15 118.324H1304.87V117.035C1304.87 115.316 1304.56 113.695 1303.93 112.172C1303.31 110.648 1302.45 109.32 1301.36 108.188C1300.26 107.094 1298.91 106.234 1297.31 105.609C1295.75 104.945 1293.93 104.613 1291.86 104.613Z" fill="white"/>
<path d="M330 214.5C378.325 214.5 417.5 175.325 417.5 127C417.5 78.6751 378.325 39.5 330 39.5C281.675 39.5 242.5 78.6751 242.5 127C242.5 175.325 281.675 214.5 330 214.5Z" fill="url(#paint0_linear_1_2)"/>
<path d="M373.666 90.805C374.445 85.7707 369.659 81.7972 365.182 83.7625L276.03 122.905C272.82 124.314 273.055 129.177 276.384 130.237L294.769 136.092C298.279 137.209 302.078 136.631 305.143 134.514L346.594 105.877C347.844 105.013 349.206 106.791 348.138 107.891L318.301 138.654C315.406 141.638 315.981 146.695 319.463 148.878L352.869 169.827C356.616 172.176 361.436 169.816 362.136 165.288L373.666 90.805Z" fill="white"/>
</g>
<defs>
<linearGradient id="paint0_linear_1_2" x1="330" y1="39.5" x2="330" y2="214.5" gradientUnits="userSpaceOnUse">
<stop stop-color="#37BBFE"/>
<stop offset="1" stop-color="#007DBB"/>
</linearGradient>
<clipPath id="clip0_1_2">
<rect width="1697" height="256" fill="white"/>
</clipPath>
</defs>
</svg>
